HIERARCHY
ROOT Hips
{
  OFFSET 56.9611 94.0927 16.7747
  CHANNELS 6 Xposition Yposition Zposition Zrotation Xrotation Yrotation
  JOINT spine
  {
    OFFSET 0 7.80058 0.448573
    CHANNELS 3 Zrotation Xrotation Yrotation
    JOINT spine1
    {
      OFFSET 0 10.1364 0
      CHANNELS 3 Zrotation Xrotation Yrotation
      JOINT spine2
      {
        OFFSET 0 9.71251 0
        CHANNELS 3 Zrotation Xrotation Yrotation
        JOINT Neck
        {
          OFFSET 0 24.9361 1.18887
          CHANNELS 3 Zrotation Xrotation Yrotation
          JOINT Head
          {
            OFFSET 0 7.53384 0
            CHANNELS 3 Zrotation Xrotation Yrotation
            End Site
            {
              OFFSET 0 18.2361 -6.01402
            }
          }
        }
        JOINT RightShoulder
        {
          OFFSET -4.08965 10.4888 -0.569457
          CHANNELS 3 Zrotation Xrotation Yrotation
          JOINT RightArm
          {
            OFFSET 0 13.757 0
            CHANNELS 3 Zrotation Xrotation Yrotation
            JOINT RightArmRoll
            {
              OFFSET 0 6.94478 0
              CHANNELS 3 Zrotation Xrotation Yrotation
              JOINT RightForeArm
              {
                OFFSET 0 20.2277 0
                CHANNELS 3 Zrotation Xrotation Yrotation
                JOINT RightForeArmRoll
                {
                  OFFSET 0 7.79312 0
                  CHANNELS 3 Zrotation Xrotation Yrotation
                  JOINT RightHand
                  {
                    OFFSET 0 15.6391 0
                    CHANNELS 3 Zrotation Xrotation Yrotation
                    End Site
                    {
                      OFFSET 0 0 0
                    }
                  }
                }
              }
            }
          }
        }
        JOINT LeftShoulder
        {
          OFFSET 4.08965 10.4888 -0.569457
          CHANNELS 3 Zrotation Xrotation Yrotation
          JOINT LeftArm
          {
            OFFSET 0 13.757 0
            CHANNELS 3 Zrotation Xrotation Yrotation
            JOINT LeftArmRoll
            {
              OFFSET 0 6.94478 0
              CHANNELS 3 Zrotation Xrotation Yrotation
              JOINT LeftForeArm
              {
                OFFSET 0 20.2277 0
                CHANNELS 3 Zrotation Xrotation Yrotation
                JOINT LeftForeArmRoll
                {
                  OFFSET 0 7.79312 0
                  CHANNELS 3 Zrotation Xrotation Yrotation
                  JOINT LeftHand
                  {
                    OFFSET 0 15.6391 0
                    CHANNELS 3 Zrotation Xrotation Yrotation
                    End Site
                    {
                      OFFSET 0 0 0
                    }
                  }
                }
              }
            }
          }
        }
      }
    }
  }
  JOINT RightUpLeg
  {
    OFFSET -6.91415 -1.26788 -1.06358
    CHANNELS 3 Zrotation Xrotation Yrotation
    JOINT RightUpLegRoll
    {
      OFFSET 0 18.3378 0
      CHANNELS 3 Zrotation Xrotation Yrotation
      JOINT RightLeg
      {
        OFFSET 0 -22.7085 0
        CHANNELS 3 Zrotation Xrotation Yrotation
        JOINT RightLegRoll
        {
          OFFSET 0 22.7828 0
          CHANNELS 3 Zrotation Xrotation Yrotation
          JOINT RightFoot
          {
            OFFSET 0 18.9629 0
            CHANNELS 3 Zrotation Xrotation Yrotation
            JOINT RightToeBase
            {
              OFFSET 0 15.852 0
              CHANNELS 3 Zrotation Xrotation Yrotation
              End Site
              {
                OFFSET 0.00671906 7.67701 -0.884893
              }
            }
          }
        }
      }
    }
  }
  JOINT LeftUpLeg
  {
    OFFSET 6.91415 -1.26788 -1.06358
    CHANNELS 3 Zrotation Xrotation Yrotation
    JOINT LeftUpLegRoll
    {
      OFFSET 0 18.3379 0
      CHANNELS 3 Zrotation Xrotation Yrotation
      JOINT LeftLeg
      {
        OFFSET 0 22.7084 0
        CHANNELS 3 Zrotation Xrotation Yrotation
        JOINT LeftLegRoll
        {
          OFFSET 0 22.9934 0
          CHANNELS 3 Zrotation Xrotation Yrotation
          JOINT LeftFoot
          {
            OFFSET 0 18.7522 0
            CHANNELS 3 Zrotation Xrotation Yrotation
            JOINT LeftToeBase
            {
              OFFSET 0 15.852 0
              CHANNELS 3 Zrotation Xrotation Yrotation
              End Site
              {
                OFFSET -0.030112 7.677 -0.884893
              }
            }
          }
        }
      }
    }
  }
}
MOTION
Frames: 11
Frame Time: 0.00208333
56.4826 94.0214 17.6803 0.140826 -2.0912 0.594711 0.0329985 -2.55337 0.00404672 0.0738264 -1.10133 0.00499295 0.0737273 0.543754 0.00378571 -1.75166 21.5939 -0.347428 2.796 0.597904 -0.668543 42.6041 -10.9704 -6.99877 53.4259 22.8841 48.6192 6.36111e-15 -2.38542e-15 -0 -3.51985 6.63285 -0.244143 -9.94667e-06 8.27656e-06 -2.99999 8.0301 -4.9514 0.697623 -37.2655 -13.8618 9.77211 -58.3228 18.8478 -40.4546 4.37326e-15 2.38542e-15 -3.18055e-15 6.55463 3.07168 0.0980055 -4.08562e-06 -4.20591e-06 3 -8.03035 -4.95139 -0.697627 -179.567 2.22133 -0.883962 180 7.01528e-15 178.842 177.724 11.6306 179.787 6.41127e-07 1.71655e-06 0.360179 -23.1735 70.8269 22.4188 8.13649 25.2327 -3.48773 178.287 -0.194821 8.63026 4.54188e-06 -4.6773e-06 -1.2632 -3.58033 -10.1386 -0.0876174 2.93943e-07 -4.95731e-06 -0.287801 24.5168 71.2566 -22.9828 -8.13649 25.2327 3.48774 
56.4885 94.0253 17.7079 0.141022 -2.09401 0.592558 0.0327773 -2.55219 0.00444987 0.0725416 -1.09928 0.00547742 0.0724422 0.545799 0.00428509 -1.81155 21.6395 -0.332466 2.88929 0.521256 -0.663403 42.6232 -10.9648 -6.99412 53.408 22.8709 48.6099 0 6.36111e-15 -0 -3.51041 6.64044 -0.244777 -9.94667e-06 8.27656e-06 -2.99999 8.0301 -4.9514 0.697623 -37.2684 -13.8648 9.77514 -58.3202 18.8489 -40.4555 7.95139e-16 -4.77083e-15 1.27222e-14 6.55458 3.07131 0.0978071 -4.08562e-06 -4.20591e-06 3 -8.03035 -4.95139 -0.697627 -179.568 2.2211 -0.883769 180 7.01528e-15 178.842 177.726 11.6328 179.786 6.41127e-07 1.71655e-06 0.360165 -23.1697 70.8242 22.4161 8.13649 25.2327 -3.48773 178.286 -0.198749 8.63041 4.54188e-06 -4.6773e-06 -1.26363 -3.58088 -10.1378 -0.0878132 2.93943e-07 -4.95731e-06 -0.28786 24.5167 71.2571 -22.9839 -8.13649 25.2327 3.48774 
56.4842 94.0349 17.7 0.141221 -2.0969 0.590457 0.0325981 -2.55095 0.00485513 0.0712728 -1.09716 0.00597384 0.0711729 0.547927 0.00479637 -1.87238 21.6855 -0.317452 2.98384 0.443688 -0.65839 42.6424 -10.959 -6.98934 53.3901 22.8573 48.6006 -3.18055e-15 -7.95139e-15 -0 -3.50098 6.64804 -0.245409 -9.94667e-06 8.27656e-06 -2.99999 8.0301 -4.9514 0.697623 -37.2718 -13.8677 9.77797 -58.3169 18.8497 -40.4565 -3.18055e-15 -9.14409e-15 -3.18055e-15 6.55437 3.07071 0.0976402 -4.08562e-06 -4.20591e-06 3 -8.03035 -4.95139 -0.697627 -179.569 2.22109 -0.88356 180 7.01528e-15 178.842 177.727 11.6355 179.786 6.41127e-07 1.71655e-06 0.360151 -23.1659 70.8215 22.4134 8.13649 25.2327 -3.48773 178.285 -0.202705 8.63053 4.54188e-06 -4.6773e-06 -1.26408 -3.58147 -10.1371 -0.0880217 2.93943e-07 -4.95731e-06 -0.287918 24.5169 71.2577 -22.9851 -8.13649 25.2327 3.48774 
56.4795 94.0304 17.6833 0.141437 -2.09984 0.588438 0.0324607 -2.54968 0.00525773 0.0700475 -1.09497 0.00647572 0.0699468 0.550112 0.00531289 -1.93284 21.7308 -0.30271 3.07766 0.366898 -0.653599 42.6611 -10.9533 -6.98458 53.3728 22.8434 48.5914 7.95139e-15 -1.11319e-14 -0 -3.49179 6.65554 -0.24602 -9.94667e-06 8.27656e-06 -2.99999 8.0301 -4.9514 0.697623 -37.2756 -13.8703 9.78056 -58.3132 18.8503 -40.4575 1.59028e-15 -2.38542e-15 -1.27222e-14 6.55399 3.06991 0.0975106 -4.08562e-06 -4.20591e-06 3 -8.03035 -4.95139 -0.697627 -179.57 2.2212 -0.883345 180 7.01528e-15 178.842 177.729 11.6385 179.786 6.41127e-07 1.71655e-06 0.360136 -23.1622 70.8189 22.4109 8.13649 25.2327 -3.48773 178.284 -0.206687 8.63061 4.54188e-06 -4.6773e-06 -1.26453 -3.58209 -10.1364 -0.0882382 2.93943e-07 -4.95731e-06 -0.287975 24.5174 71.2583 -22.9863 -8.13649 25.2327 3.48774 
56.4821 94.0357 17.6941 0.141683 -2.1028 0.586529 0.0323654 -2.5484 0.00565287 0.0688929 -1.09276 0.0069766 0.0687913 0.552329 0.005828 -1.99161 21.7743 -0.288561 3.16875 0.292589 -0.649128 42.6788 -10.9478 -6.98 53.3567 22.8297 48.5826 4.77083e-15 -1.74931e-14 9.54166e-15 -3.48305 6.66284 -0.246593 -9.94667e-06 8.27656e-06 -2.99999 8.0301 -4.9514 0.697623 -37.2799 -13.8728 9.78288 -58.3091 18.8507 -40.4583 4.37326e-15 3.57812e-15 -1.90833e-14 6.5534 3.06898 0.0974244 -4.08562e-06 -4.20591e-06 3 -8.03035 -4.95139 -0.697627 -179.571 2.22134 -0.883132 180 7.01528e-15 178.842 177.73 11.6417 179.786 6.41127e-07 1.71655e-06 0.360122 -23.1587 70.8165 22.4085 8.13649 25.2327 -3.48773 178.282 -0.210695 8.63066 4.54188e-06 -4.6773e-06 -1.26496 -3.58273 -10.1358 -0.0884585 2.93943e-07 -4.95731e-06 -0.28803 24.5181 71.2589 -22.9876 -8.13649 25.2327 3.48774 
56.4848 94.0351 17.6868 0.141972 -2.10575 0.584758 0.0323122 -2.54713 0.00603577 0.0678365 -1.09054 0.00747001 0.0677335 0.554551 0.00633502 -2.04737 21.8148 -0.275331 3.25513 0.222461 -0.645072 42.695 -10.9427 -6.97575 53.3422 22.8165 48.5744 5.56152e-30 -1.66979e-14 1.90833e-14 -3.47498 6.66984 -0.247107 -9.94667e-06 8.27656e-06 -2.99999 8.0301 -4.9514 0.697623 -37.2845 -13.8749 9.78491 -58.3048 18.8508 -40.459 -1.19271e-15 1.98785e-15 3.18055e-15 6.55257 3.06796 0.0973874 -4.08562e-06 -4.20591e-06 3 -8.03035 -4.95139 -0.697627 -179.572 2.22139 -0.882932 180 7.01528e-15 178.842 177.732 11.6449 179.786 6.41127e-07 1.71655e-06 0.360107 -23.1555 70.8143 22.4063 8.13649 25.2327 -3.48773 178.281 -0.214727 8.63068 4.54188e-06 -4.6773e-06 -1.26536 -3.58339 -10.1352 -0.0886782 2.93943e-07 -4.95731e-06 -0.288085 24.5192 71.2595 -22.9888 -8.13649 25.2327 3.48774 
56.4856 94.0254 17.6894 0.142316 -2.10867 0.583154 0.0323013 -2.54588 0.00640163 0.0669058 -1.08834 0.0079495 0.066801 0.556751 0.00682731 -2.09882 21.8512 -0.263343 3.33481 0.158213 -0.641529 42.7091 -10.9381 -6.97198 53.33 22.8042 48.5668 6.36111e-15 -6.36111e-15 6.36111e-15 -3.46778 6.67643 -0.247545 -9.94667e-06 8.27656e-06 -2.99999 8.0301 -4.9514 0.697623 -37.2895 -13.8768 9.78662 -58.3005 18.8506 -40.4595 1.19271e-15 3.18055e-15 -3.18055e-15 6.55148 3.06691 0.0974055 -4.08562e-06 -4.20591e-06 3 -8.03035 -4.95139 -0.697627 -179.573 2.22128 -0.882755 180 7.01528e-15 178.842 177.733 11.6483 179.786 6.41127e-07 1.71655e-06 0.360093 -23.1525 70.8124 22.4044 8.13649 25.2327 -3.48773 178.28 -0.218782 8.63066 4.54188e-06 -4.6773e-06 -1.26573 -3.58406 -10.1345 -0.0888928 2.93943e-07 -4.95731e-06 -0.288139 24.5206 71.2601 -22.99 -8.13649 25.2327 3.48774 
56.4811 94.0293 17.692 0.14273 -2.11152 0.581747 0.0323328 -2.54467 0.00674568 0.0661282 -1.08618 0.00840858 0.066021 0.558903 0.0072982 -2.14462 21.8825 -0.252924 3.40578 0.101548 -0.638595 42.7208 -10.9343 -6.96883 53.3206 22.793 48.5601 1.59028e-15 -1.43125e-14 1.59028e-14 -3.46166 6.68252 -0.247889 -9.94667e-06 8.27656e-06 -2.99999 8.0301 -4.9514 0.697623 -37.2948 -13.8784 9.78798 -58.2962 18.85 -40.4596 -1.19271e-15 4.37326e-15 -3.18055e-15 6.55009 3.06587 0.0974846 -4.08562e-06 -4.20591e-06 3 -8.03035 -4.95139 -0.697627 -179.574 2.22089 -0.88261 180 7.01528e-15 178.842 177.734 11.6515 179.786 6.41127e-07 1.71655e-06 0.360079 -23.1498 70.8109 22.4028 8.13649 25.2327 -3.48773 178.279 -0.222857 8.63062 4.54188e-06 -4.6773e-06 -1.26604 -3.58473 -10.1337 -0.089098 2.93943e-07 -4.95731e-06 -0.288192 24.5224 71.2607 -22.9912 -8.13649 25.2327 3.48774 
56.4824 94.0367 17.6938 0.143225 -2.11428 0.580563 0.0324067 -2.54353 0.00706313 0.0655311 -1.08411 0.0088408 0.0654208 0.560982 0.00774104 -2.18347 21.9074 -0.244398 3.46607 0.0541639 -0.636366 42.7294 -10.9315 -6.96648 53.3145 22.7834 48.5544 7.95139e-15 -6.36111e-15 9.54166e-15 -3.45686 6.688 -0.248119 -9.94667e-06 8.27656e-06 -2.99999 8.0301 -4.9514 0.697623 -37.3005 -13.8796 9.78897 -58.2921 18.8491 -40.4593 3.97569e-15 8.34896e-15 -0 6.54837 3.06491 0.0976307 -4.08562e-06 -4.20591e-06 3 -8.03035 -4.95139 -0.697627 -179.575 2.22014 -0.882507 180 7.01528e-15 178.842 177.736 11.6545 179.786 6.41127e-07 1.71655e-06 0.360064 -23.1476 70.8097 22.4017 8.13649 25.2327 -3.48773 178.278 -0.226952 8.63054 4.54188e-06 -4.6773e-06 -1.26629 -3.58539 -10.1329 -0.0892893 2.93943e-07 -4.95731e-06 -0.288243 24.5246 71.2613 -22.9923 -8.13649 25.2327 3.48774 
56.4847 94.0342 17.6929 0.143815 -2.11692 0.579632 0.0325232 -2.54247 0.00734919 0.065142 -1.08213 0.00923968 0.0650278 0.562961 0.00814916 -2.21403 21.925 -0.238091 3.51368 0.017763 -0.634939 42.7344 -10.9297 -6.96505 53.3123 22.7756 48.5499 1.27222e-14 -1.27222e-14 3.18055e-15 -3.45357 6.69277 -0.248216 -9.94667e-06 8.27656e-06 -2.99999 8.0301 -4.9514 0.697623 -37.3064 -13.8805 9.78954 -58.2884 18.8478 -40.4585 3.18055e-15 7.95139e-15 -9.54166e-15 6.5463 3.06406 0.0978495 -4.08562e-06 -4.20591e-06 3 -8.03035 -4.95139 -0.697627 -179.575 2.21892 -0.882456 180 7.01528e-15 178.842 177.737 11.6572 179.786 6.41127e-07 1.71655e-06 0.36005 -23.1458 70.8089 22.401 8.13649 25.2327 -3.48773 178.276 -0.231065 8.63044 4.54188e-06 -4.6773e-06 -1.26645 -3.58604 -10.1319 -0.0894623 2.93943e-07 -4.95731e-06 -0.288293 24.5273 71.2617 -22.9933 -8.13649 25.2327 3.48774 
56.4839 94.0241 17.6953 0.144537 -2.1195 0.578928 0.0327231 -2.54147 0.00761943 0.0649648 -1.08022 0.00962175 0.0648455 0.564867 0.00853961 -2.23764 21.9361 -0.233754 3.55044 -0.00907613 -0.634315 42.7361 -10.9289 -6.96443 53.3138 22.7692 48.5466 -1.59028e-15 1.19271e-14 9.54166e-15 -3.45173 6.69694 -0.248181 -9.94667e-06 8.27656e-06 -2.99999 8.0301 -4.9514 0.697623 -37.3129 -13.8808 9.78953 -58.2844 18.846 -40.4572 1.98785e-15 -4.77083e-15 -6.36111e-15 6.54366 3.06314 0.0981805 -4.08562e-06 -4.20591e-06 3 -8.03035 -4.95139 -0.697627 -179.576 2.21731 -0.882462 180 7.01528e-15 178.842 177.738 11.66 179.785 6.41127e-07 1.71655e-06 0.360035 -23.1445 70.8087 22.4008 8.13649 25.2327 -3.48773 178.275 -0.235241 8.63028 4.54188e-06 -4.6773e-06 -1.26655 -3.58672 -10.1308 -0.0896333 2.93943e-07 -4.95731e-06 -0.288343 24.5307 71.2623 -22.9942 -8.13649 25.2327 3.48774 
